0, 0, Header, 1, 1, 480
1, 0, Start_track
1, 0, Title_t, "é\213¼ç\220´\000"
1, 0, Time_signature, 4, 2, 24, 8
1, 0, Key_signature, -6, "major"
1, 0, Tempo, 500000
1, 0, Control_c, 0, 121, 0
1, 0, Program_c, 0, 0
1, 0, Control_c, 0, 7, 100
1, 0, Control_c, 0, 10, 64
1, 0, Control_c, 0, 91, 0
1, 0, Control_c, 0, 93, 0
1, 0, MIDI_port, 0
1, 0, Note_on_c, 0, 63, 95
1, 227, Note_on_c, 0, 63, 0
1, 240, Note_on_c, 0, 65, 95
1, 467, Note_on_c, 0, 65, 0
1, 480, Note_on_c, 0, 66, 95
1, 707, Note_on_c, 0, 66, 0
1, 720, Note_on_c, 0, 68, 95
1, 947, Note_on_c, 0, 68, 0
1, 960, Note_on_c, 0, 70, 95
1, 1415, Note_on_c, 0, 70, 0
1, 1440, Note_on_c, 0, 63, 95
1, 1667, Note_on_c, 0, 63, 0
1, 1680, Note_on_c, 0, 73, 95
1, 1907, Note_on_c, 0, 73, 0
1, 1920, Note_on_c, 0, 70, 95
1, 2375, Note_on_c, 0, 70, 0
1, 2400, Note_on_c, 0, 63, 95
1, 2855, Note_on_c, 0, 63, 0
1, 2880, Note_on_c, 0, 70, 95
1, 3107, Note_on_c, 0, 70, 0
1, 3120, Note_on_c, 0, 68, 95
1, 3347, Note_on_c, 0, 68, 0
1, 3360, Note_on_c, 0, 66, 95
1, 3587, Note_on_c, 0, 66, 0
1, 3600, Note_on_c, 0, 65, 95
1, 3827, Note_on_c, 0, 65, 0
1, 3840, Note_on_c, 0, 63, 95
1, 4067, Note_on_c, 0, 63, 0
1, 4080, Note_on_c, 0, 65, 95
1, 4307, Note_on_c, 0, 65, 0
1, 4320, Note_on_c, 0, 66, 95
1, 4547, Note_on_c, 0, 66, 0
1, 4560, Note_on_c, 0, 68, 95
1, 4787, Note_on_c, 0, 68, 0
1, 4800, Note_on_c, 0, 70, 95
1, 5255, Note_on_c, 0, 70, 0
1, 5280, Note_on_c, 0, 68, 95
1, 5507, Note_on_c, 0, 68, 0
1, 5520, Note_on_c, 0, 66, 95
1, 5747, Note_on_c, 0, 66, 0
1, 5760, Note_on_c, 0, 65, 95
1, 5987, Note_on_c, 0, 65, 0
1, 6000, Note_on_c, 0, 58, 95
1, 6227, Note_on_c, 0, 58, 0
1, 6240, Note_on_c, 0, 65, 95
1, 6467, Note_on_c, 0, 65, 0
1, 6480, Note_on_c, 0, 66, 95
1, 6707, Note_on_c, 0, 66, 0
1, 6720, Note_on_c, 0, 65, 95
1, 6947, Note_on_c, 0, 65, 0
1, 6960, Note_on_c, 0, 63, 95
1, 7187, Note_on_c, 0, 63, 0
1, 7200, Note_on_c, 0, 62, 95
1, 7427, Note_on_c, 0, 62, 0
1, 7440, Note_on_c, 0, 65, 95
1, 7667, Note_on_c, 0, 65, 0
1, 7680, Note_on_c, 0, 63, 95
1, 7907, Note_on_c, 0, 63, 0
1, 7920, Note_on_c, 0, 65, 95
1, 8147, Note_on_c, 0, 65, 0
1, 8160, Note_on_c, 0, 66, 95
1, 8387, Note_on_c, 0, 66, 0
1, 8400, Note_on_c, 0, 68, 95
1, 8627, Note_on_c, 0, 68, 0
1, 8640, Note_on_c, 0, 70, 95
1, 9095, Note_on_c, 0, 70, 0
1, 9120, Note_on_c, 0, 68, 95
1, 9347, Note_on_c, 0, 68, 0
1, 9360, Note_on_c, 0, 73, 95
1, 9587, Note_on_c, 0, 73, 0
1, 9600, Note_on_c, 0, 75, 95
1, 10055, Note_on_c, 0, 75, 0
1, 10080, Note_on_c, 0, 75, 95
1, 10535, Note_on_c, 0, 75, 0
1, 10560, Note_on_c, 0, 77, 95
1, 11015, Note_on_c, 0, 77, 0
1, 11040, Note_on_c, 0, 78, 95
1, 11495, Note_on_c, 0, 78, 0
1, 11520, Note_on_c, 0, 75, 95
1, 11747, Note_on_c, 0, 75, 0
1, 11760, Note_on_c, 0, 77, 95
1, 11987, Note_on_c, 0, 77, 0
1, 12000, Note_on_c, 0, 78, 95
1, 12227, Note_on_c, 0, 78, 0
1, 12240, Note_on_c, 0, 80, 95
1, 12467, Note_on_c, 0, 80, 0
1, 12480, Note_on_c, 0, 82, 95
1, 12935, Note_on_c, 0, 82, 0
1, 12960, Note_on_c, 0, 80, 95
1, 13187, Note_on_c, 0, 80, 0
1, 13200, Note_on_c, 0, 78, 95
1, 13427, Note_on_c, 0, 78, 0
1, 13440, Note_on_c, 0, 80, 95
1, 13895, Note_on_c, 0, 80, 0
1, 13920, Note_on_c, 0, 77, 95
1, 14375, Note_on_c, 0, 77, 0
1, 14400, Note_on_c, 0, 78, 95
1, 14855, Note_on_c, 0, 78, 0
1, 14880, Note_on_c, 0, 80, 95
1, 15335, Note_on_c, 0, 80, 0
1, 15360, Note_on_c, 0, 63, 95
1, 16271, Note_on_c, 0, 63, 0
1, 16320, Note_on_c, 0, 63, 95
1, 16547, Note_on_c, 0, 63, 0
1, 16560, Note_on_c, 0, 65, 95
1, 16787, Note_on_c, 0, 65, 0
1, 16800, Note_on_c, 0, 66, 95
1, 17255, Note_on_c, 0, 66, 0
1, 17280, Note_on_c, 0, 65, 95
1, 17963, Note_on_c, 0, 65, 0
1, 18000, Note_on_c, 0, 58, 95
1, 18683, Note_on_c, 0, 58, 0
1, 18720, Note_on_c, 0, 65, 95
1, 19175, Note_on_c, 0, 65, 0
1, 19200, Note_on_c, 0, 65, 95
1, 19883, Note_on_c, 0, 65, 0
1, 19920, Note_on_c, 0, 66, 95
1, 20147, Note_on_c, 0, 66, 0
1, 20160, Note_on_c, 0, 63, 95
1, 20615, Note_on_c, 0, 63, 0
1, 20640, Note_on_c, 0, 61, 95
1, 21095, Note_on_c, 0, 61, 0
1, 21120, Note_on_c, 0, 61, 95
1, 21575, Note_on_c, 0, 61, 0
1, 21600, Note_on_c, 0, 63, 95
1, 21827, Note_on_c, 0, 63, 0
1, 21840, Note_on_c, 0, 58, 95
1, 22523, Note_on_c, 0, 58, 0
1, 22560, Note_on_c, 0, 63, 95
1, 23015, Note_on_c, 0, 63, 0
1, 23040, Note_on_c, 0, 63, 95
1, 23951, Note_on_c, 0, 63, 0
1, 24000, Note_on_c, 0, 63, 95
1, 24227, Note_on_c, 0, 63, 0
1, 24240, Note_on_c, 0, 65, 95
1, 24467, Note_on_c, 0, 65, 0
1, 24480, Note_on_c, 0, 66, 95
1, 24935, Note_on_c, 0, 66, 0
1, 24960, Note_on_c, 0, 65, 95
1, 25643, Note_on_c, 0, 65, 0
1, 25680, Note_on_c, 0, 66, 95
1, 26363, Note_on_c, 0, 66, 0
1, 26400, Note_on_c, 0, 68, 95
1, 26855, Note_on_c, 0, 68, 0
1, 26880, Note_on_c, 0, 63, 95
1, 27563, Note_on_c, 0, 63, 0
1, 27600, Note_on_c, 0, 70, 95
1, 27827, Note_on_c, 0, 70, 0
1, 27840, Note_on_c, 0, 70, 95
1, 29663, Note_on_c, 0, 70, 0
1, 29760, Note_on_c, 0, 68, 95
1, 29987, Note_on_c, 0, 68, 0
1, 30000, Note_on_c, 0, 70, 95
1, 30227, Note_on_c, 0, 70, 0
1, 30240, Note_on_c, 0, 73, 95
1, 30695, Note_on_c, 0, 73, 0
1, 30720, Note_on_c, 0, 75, 95
1, 31631, Note_on_c, 0, 75, 0
1, 31680, Note_on_c, 0, 75, 95
1, 31907, Note_on_c, 0, 75, 0
1, 31920, Note_on_c, 0, 77, 95
1, 32147, Note_on_c, 0, 77, 0
1, 32160, Note_on_c, 0, 78, 95
1, 32615, Note_on_c, 0, 78, 0
1, 32640, Note_on_c, 0, 77, 95
1, 33323, Note_on_c, 0, 77, 0
1, 33360, Note_on_c, 0, 70, 95
1, 34043, Note_on_c, 0, 70, 0
1, 34080, Note_on_c, 0, 77, 95
1, 34535, Note_on_c, 0, 77, 0
1, 34560, Note_on_c, 0, 77, 95
1, 35243, Note_on_c, 0, 77, 0
1, 35280, Note_on_c, 0, 78, 95
1, 35507, Note_on_c, 0, 78, 0
1, 35520, Note_on_c, 0, 75, 95
1, 35975, Note_on_c, 0, 75, 0
1, 36000, Note_on_c, 0, 73, 95
1, 36455, Note_on_c, 0, 73, 0
1, 36480, Note_on_c, 0, 73, 95
1, 36935, Note_on_c, 0, 73, 0
1, 36960, Note_on_c, 0, 75, 95
1, 37187, Note_on_c, 0, 75, 0
1, 37200, Note_on_c, 0, 70, 95
1, 37883, Note_on_c, 0, 70, 0
1, 37920, Note_on_c, 0, 77, 95
1, 38375, Note_on_c, 0, 77, 0
1, 38400, Note_on_c, 0, 75, 95
1, 39311, Note_on_c, 0, 75, 0
1, 39360, Note_on_c, 0, 75, 95
1, 39587, Note_on_c, 0, 75, 0
1, 39600, Note_on_c, 0, 77, 95
1, 39827, Note_on_c, 0, 77, 0
1, 39840, Note_on_c, 0, 78, 95
1, 40067, Note_on_c, 0, 78, 0
1, 40080, Note_on_c, 0, 80, 95
1, 40307, Note_on_c, 0, 80, 0
1, 40320, Note_on_c, 0, 77, 95
1, 41003, Note_on_c, 0, 77, 0
1, 41040, Note_on_c, 0, 78, 95
1, 41723, Note_on_c, 0, 78, 0
1, 41760, Note_on_c, 0, 80, 95
1, 42215, Note_on_c, 0, 80, 0
1, 42240, Note_on_c, 0, 74, 95
1, 42923, Note_on_c, 0, 74, 0
1, 42960, Note_on_c, 0, 70, 95
1, 43643, Note_on_c, 0, 70, 0
1, 43680, Note_on_c, 0, 82, 95
1, 44135, Note_on_c, 0, 82, 0
1, 44160, Note_on_c, 0, 80, 95
1, 44615, Note_on_c, 0, 80, 0
1, 44640, Note_on_c, 0, 78, 95
1, 45095, Note_on_c, 0, 78, 0
1, 45120, Note_on_c, 0, 77, 95
1, 45575, Note_on_c, 0, 77, 0
1, 45600, Note_on_c, 0, 78, 95
1, 46055, Note_on_c, 0, 78, 0
1, 46080, Key_signature, -2, "major"
1, 46080, Note_on_c, 0, 79, 95
1, 46307, Note_on_c, 0, 79, 0
1, 46320, Note_on_c, 0, 74, 95
1, 46775, Note_on_c, 0, 74, 0
1, 46800, Note_on_c, 0, 79, 95
1, 47255, Note_on_c, 0, 79, 0
1, 47280, Note_on_c, 0, 70, 95
1, 47507, Note_on_c, 0, 70, 0
1, 47520, Note_on_c, 0, 74, 95
1, 47747, Note_on_c, 0, 74, 0
1, 47760, Note_on_c, 0, 77, 95
1, 47987, Note_on_c, 0, 77, 0
1, 48000, Note_on_c, 0, 79, 95
1, 48227, Note_on_c, 0, 79, 0
1, 48240, Note_on_c, 0, 74, 95
1, 48467, Note_on_c, 0, 74, 0
1, 48480, Note_on_c, 0, 70, 95
1, 48707, Note_on_c, 0, 70, 0
1, 48720, Note_on_c, 0, 79, 95
1, 49175, Note_on_c, 0, 79, 0
1, 49200, Note_on_c, 0, 79, 95
1, 49427, Note_on_c, 0, 79, 0
1, 49440, Note_on_c, 0, 81, 95
1, 49667, Note_on_c, 0, 81, 0
1, 49680, Note_on_c, 0, 82, 95
1, 49907, Note_on_c, 0, 82, 0
1, 49920, Note_on_c, 0, 79, 95
1, 50147, Note_on_c, 0, 79, 0
1, 50160, Note_on_c, 0, 74, 95
1, 50615, Note_on_c, 0, 74, 0
1, 50640, Note_on_c, 0, 79, 95
1, 51095, Note_on_c, 0, 79, 0
1, 51120, Note_on_c, 0, 74, 95
1, 51347, Note_on_c, 0, 74, 0
1, 51360, Note_on_c, 0, 79, 95
1, 51587, Note_on_c, 0, 79, 0
1, 51600, Note_on_c, 0, 84, 95
1, 51827, Note_on_c, 0, 84, 0
1, 51840, Note_on_c, 0, 82, 95
1, 52751, Note_on_c, 0, 82, 0
1, 52800, Note_on_c, 0, 81, 95
1, 53027, Note_on_c, 0, 81, 0
1, 53040, Note_on_c, 0, 79, 95
1, 53267, Note_on_c, 0, 79, 0
1, 53280, Note_on_c, 0, 77, 95
1, 53507, Note_on_c, 0, 77, 0
1, 53520, Note_on_c, 0, 74, 95
1, 53747, Note_on_c, 0, 74, 0
1, 53760, Note_on_c, 0, 79, 95
1, 53987, Note_on_c, 0, 79, 0
1, 54000, Note_on_c, 0, 74, 95
1, 54455, Note_on_c, 0, 74, 0
1, 54480, Note_on_c, 0, 79, 95
1, 54935, Note_on_c, 0, 79, 0
1, 54960, Note_on_c, 0, 70, 95
1, 55187, Note_on_c, 0, 70, 0
1, 55200, Note_on_c, 0, 74, 95
1, 55427, Note_on_c, 0, 74, 0
1, 55440, Note_on_c, 0, 77, 95
1, 55667, Note_on_c, 0, 77, 0
1, 55680, Note_on_c, 0, 79, 95
1, 55907, Note_on_c, 0, 79, 0
1, 55920, Note_on_c, 0, 74, 95
1, 56147, Note_on_c, 0, 74, 0
1, 56160, Note_on_c, 0, 70, 95
1, 56387, Note_on_c, 0, 70, 0
1, 56400, Note_on_c, 0, 79, 95
1, 56855, Note_on_c, 0, 79, 0
1, 56880, Note_on_c, 0, 79, 95
1, 57107, Note_on_c, 0, 79, 0
1, 57120, Note_on_c, 0, 81, 95
1, 57347, Note_on_c, 0, 81, 0
1, 57360, Note_on_c, 0, 82, 95
1, 57587, Note_on_c, 0, 82, 0
1, 57600, Note_on_c, 0, 79, 95
1, 57827, Note_on_c, 0, 79, 0
1, 57840, Note_on_c, 0, 74, 95
1, 58295, Note_on_c, 0, 74, 0
1, 58320, Note_on_c, 0, 79, 95
1, 58775, Note_on_c, 0, 79, 0
1, 58800, Note_on_c, 0, 74, 95
1, 59027, Note_on_c, 0, 74, 0
1, 59040, Note_on_c, 0, 79, 95
1, 59267, Note_on_c, 0, 79, 0
1, 59280, Note_on_c, 0, 84, 95
1, 59507, Note_on_c, 0, 84, 0
1, 59520, Note_on_c, 0, 82, 95
1, 60431, Note_on_c, 0, 82, 0
1, 60480, Note_on_c, 0, 81, 95
1, 60935, Note_on_c, 0, 81, 0
1, 60960, Note_on_c, 0, 82, 95
1, 61415, Note_on_c, 0, 82, 0
1, 61440, Note_on_c, 0, 79, 95
1, 61667, Note_on_c, 0, 79, 0
1, 61680, Note_on_c, 0, 74, 95
1, 62135, Note_on_c, 0, 74, 0
1, 62160, Note_on_c, 0, 79, 95
1, 62615, Note_on_c, 0, 79, 0
1, 62640, Note_on_c, 0, 70, 95
1, 62867, Note_on_c, 0, 70, 0
1, 62880, Note_on_c, 0, 74, 95
1, 63107, Note_on_c, 0, 74, 0
1, 63120, Note_on_c, 0, 77, 95
1, 63347, Note_on_c, 0, 77, 0
1, 63360, Note_on_c, 0, 79, 95
1, 63587, Note_on_c, 0, 79, 0
1, 63600, Note_on_c, 0, 74, 95
1, 63827, Note_on_c, 0, 74, 0
1, 63840, Note_on_c, 0, 70, 95
1, 64067, Note_on_c, 0, 70, 0
1, 64080, Note_on_c, 0, 79, 95
1, 64535, Note_on_c, 0, 79, 0
1, 64560, Note_on_c, 0, 79, 95
1, 64787, Note_on_c, 0, 79, 0
1, 64800, Note_on_c, 0, 81, 95
1, 65027, Note_on_c, 0, 81, 0
1, 65040, Note_on_c, 0, 82, 95
1, 65267, Note_on_c, 0, 82, 0
1, 65280, Note_on_c, 0, 79, 95
1, 65507, Note_on_c, 0, 79, 0
1, 65520, Note_on_c, 0, 74, 95
1, 65975, Note_on_c, 0, 74, 0
1, 66000, Note_on_c, 0, 79, 95
1, 66455, Note_on_c, 0, 79, 0
1, 66480, Note_on_c, 0, 74, 95
1, 66707, Note_on_c, 0, 74, 0
1, 66720, Note_on_c, 0, 79, 95
1, 66947, Note_on_c, 0, 79, 0
1, 66960, Note_on_c, 0, 84, 95
1, 67187, Note_on_c, 0, 84, 0
1, 67200, Note_on_c, 0, 82, 95
1, 68111, Note_on_c, 0, 82, 0
1, 68160, Note_on_c, 0, 81, 95
1, 68387, Note_on_c, 0, 81, 0
1, 68400, Note_on_c, 0, 79, 95
1, 68627, Note_on_c, 0, 79, 0
1, 68640, Note_on_c, 0, 77, 95
1, 68867, Note_on_c, 0, 77, 0
1, 68880, Note_on_c, 0, 74, 95
1, 69107, Note_on_c, 0, 74, 0
1, 69120, Note_on_c, 0, 79, 95
1, 69347, Note_on_c, 0, 79, 0
1, 69360, Note_on_c, 0, 74, 95
1, 69815, Note_on_c, 0, 74, 0
1, 69840, Note_on_c, 0, 79, 95
1, 70295, Note_on_c, 0, 79, 0
1, 70320, Note_on_c, 0, 70, 95
1, 70547, Note_on_c, 0, 70, 0
1, 70560, Note_on_c, 0, 74, 95
1, 70787, Note_on_c, 0, 74, 0
1, 70800, Note_on_c, 0, 77, 95
1, 71027, Note_on_c, 0, 77, 0
1, 71040, Note_on_c, 0, 79, 95
1, 71267, Note_on_c, 0, 79, 0
1, 71280, Note_on_c, 0, 74, 95
1, 71507, Note_on_c, 0, 74, 0
1, 71520, Note_on_c, 0, 70, 95
1, 71747, Note_on_c, 0, 70, 0
1, 71760, Note_on_c, 0, 79, 95
1, 72215, Note_on_c, 0, 79, 0
1, 72240, Note_on_c, 0, 79, 95
1, 72467, Note_on_c, 0, 79, 0
1, 72480, Note_on_c, 0, 81, 95
1, 72707, Note_on_c, 0, 81, 0
1, 72720, Note_on_c, 0, 82, 95
1, 72947, Note_on_c, 0, 82, 0
1, 72960, Note_on_c, 0, 79, 95
1, 73187, Note_on_c, 0, 79, 0
1, 73200, Note_on_c, 0, 74, 95
1, 73655, Note_on_c, 0, 74, 0
1, 73680, Note_on_c, 0, 79, 95
1, 74135, Note_on_c, 0, 79, 0
1, 74160, Note_on_c, 0, 74, 95
1, 74387, Note_on_c, 0, 74, 0
1, 74400, Note_on_c, 0, 79, 95
1, 74627, Note_on_c, 0, 79, 0
1, 74640, Note_on_c, 0, 81, 95
1, 74867, Note_on_c, 0, 81, 0
1, 74880, Note_on_c, 0, 82, 95
1, 78527, Note_on_c, 0, 82, 0
1, 78528, End_track
0, 0, End_of_file
