0, 0, Header, 1, 1, 480
1, 0, Start_track
1, 0, Title_t, "é\213¼ç\220´\000"
1, 0, Time_signature, 4, 2, 24, 8
1, 0, Key_signature, 0, "major"
1, 0, Tempo, 500000
1, 0, Control_c, 0, 121, 0
1, 0, Program_c, 0, 0
1, 0, Control_c, 0, 7, 100
1, 0, Control_c, 0, 10, 64
1, 0, Control_c, 0, 91, 0
1, 0, Control_c, 0, 93, 0
1, 0, MIDI_port, 0
1, 1920, Key_signature, -3, "major"
1, 1920, Tempo, 750000
1, 1920, Note_on_c, 0, 72, 90
1, 2147, Note_on_c, 0, 72, 0
1, 2160, Note_on_c, 0, 75, 90
1, 2387, Note_on_c, 0, 75, 0
1, 2400, Note_on_c, 0, 74, 90
1, 2513, Note_on_c, 0, 74, 0
1, 2520, Note_on_c, 0, 75, 90
1, 2633, Note_on_c, 0, 75, 0
1, 2640, Note_on_c, 0, 70, 90
1, 2867, Note_on_c, 0, 70, 0
1, 2880, Note_on_c, 0, 72, 90
1, 3107, Note_on_c, 0, 72, 0
1, 3120, Note_on_c, 0, 75, 90
1, 3347, Note_on_c, 0, 75, 0
1, 3360, Note_on_c, 0, 74, 90
1, 3473, Note_on_c, 0, 74, 0
1, 3480, Note_on_c, 0, 75, 90
1, 3593, Note_on_c, 0, 75, 0
1, 3600, Note_on_c, 0, 70, 90
1, 3827, Note_on_c, 0, 70, 0
1, 3840, Note_on_c, 0, 72, 90
1, 4067, Note_on_c, 0, 72, 0
1, 4080, Note_on_c, 0, 75, 90
1, 4307, Note_on_c, 0, 75, 0
1, 4320, Note_on_c, 0, 74, 90
1, 4433, Note_on_c, 0, 74, 0
1, 4440, Note_on_c, 0, 75, 90
1, 4553, Note_on_c, 0, 75, 0
1, 4560, Note_on_c, 0, 70, 90
1, 4787, Note_on_c, 0, 70, 0
1, 4800, Note_on_c, 0, 72, 90
1, 5369, Note_on_c, 0, 72, 0
1, 5400, Note_on_c, 0, 72, 90
1, 5513, Note_on_c, 0, 72, 0
1, 5520, Note_on_c, 0, 74, 90
1, 5633, Note_on_c, 0, 74, 0
1, 5640, Note_on_c, 0, 75, 90
1, 5753, Note_on_c, 0, 75, 0
1, 5760, Note_on_c, 0, 74, 90
1, 5987, Note_on_c, 0, 74, 0
1, 6000, Note_on_c, 0, 79, 90
1, 6227, Note_on_c, 0, 79, 0
1, 6240, Note_on_c, 0, 77, 90
1, 6353, Note_on_c, 0, 77, 0
1, 6360, Note_on_c, 0, 79, 90
1, 6473, Note_on_c, 0, 79, 0
1, 6480, Note_on_c, 0, 74, 90
1, 6707, Note_on_c, 0, 74, 0
1, 6720, Note_on_c, 0, 74, 90
1, 6947, Note_on_c, 0, 74, 0
1, 6960, Note_on_c, 0, 79, 90
1, 7187, Note_on_c, 0, 79, 0
1, 7200, Note_on_c, 0, 77, 90
1, 7313, Note_on_c, 0, 77, 0
1, 7320, Note_on_c, 0, 79, 90
1, 7433, Note_on_c, 0, 79, 0
1, 7440, Note_on_c, 0, 74, 90
1, 7667, Note_on_c, 0, 74, 0
1, 7680, Note_on_c, 0, 75, 90
1, 7907, Note_on_c, 0, 75, 0
1, 7920, Note_on_c, 0, 79, 90
1, 8147, Note_on_c, 0, 79, 0
1, 8160, Note_on_c, 0, 77, 90
1, 8273, Note_on_c, 0, 77, 0
1, 8280, Note_on_c, 0, 79, 90
1, 8393, Note_on_c, 0, 79, 0
1, 8400, Note_on_c, 0, 74, 90
1, 8627, Note_on_c, 0, 74, 0
1, 8640, Note_on_c, 0, 75, 90
1, 9551, Note_on_c, 0, 75, 0
1, 9600, Note_on_c, 0, 72, 90
1, 9827, Note_on_c, 0, 72, 0
1, 9840, Note_on_c, 0, 75, 90
1, 10067, Note_on_c, 0, 75, 0
1, 10080, Note_on_c, 0, 74, 90
1, 10193, Note_on_c, 0, 74, 0
1, 10200, Note_on_c, 0, 75, 90
1, 10313, Note_on_c, 0, 75, 0
1, 10320, Note_on_c, 0, 70, 90
1, 10547, Note_on_c, 0, 70, 0
1, 10560, Note_on_c, 0, 72, 90
1, 10787, Note_on_c, 0, 72, 0
1, 10800, Note_on_c, 0, 75, 90
1, 11027, Note_on_c, 0, 75, 0
1, 11040, Note_on_c, 0, 74, 90
1, 11153, Note_on_c, 0, 74, 0
1, 11160, Note_on_c, 0, 75, 90
1, 11273, Note_on_c, 0, 75, 0
1, 11280, Note_on_c, 0, 70, 90
1, 11507, Note_on_c, 0, 70, 0
1, 11520, Note_on_c, 0, 72, 90
1, 11747, Note_on_c, 0, 72, 0
1, 11760, Note_on_c, 0, 75, 90
1, 11987, Note_on_c, 0, 75, 0
1, 12000, Note_on_c, 0, 74, 90
1, 12113, Note_on_c, 0, 74, 0
1, 12120, Note_on_c, 0, 75, 90
1, 12233, Note_on_c, 0, 75, 0
1, 12240, Note_on_c, 0, 70, 90
1, 12467, Note_on_c, 0, 70, 0
1, 12480, Note_on_c, 0, 72, 90
1, 13049, Note_on_c, 0, 72, 0
1, 13080, Note_on_c, 0, 72, 90
1, 13193, Note_on_c, 0, 72, 0
1, 13200, Note_on_c, 0, 74, 90
1, 13313, Note_on_c, 0, 74, 0
1, 13320, Note_on_c, 0, 75, 90
1, 13433, Note_on_c, 0, 75, 0
1, 13440, Note_on_c, 0, 74, 90
1, 13667, Note_on_c, 0, 74, 0
1, 13680, Note_on_c, 0, 79, 90
1, 13907, Note_on_c, 0, 79, 0
1, 13920, Note_on_c, 0, 77, 90
1, 14033, Note_on_c, 0, 77, 0
1, 14040, Note_on_c, 0, 79, 90
1, 14153, Note_on_c, 0, 79, 0
1, 14160, Note_on_c, 0, 74, 90
1, 14387, Note_on_c, 0, 74, 0
1, 14400, Note_on_c, 0, 74, 90
1, 14627, Note_on_c, 0, 74, 0
1, 14640, Note_on_c, 0, 79, 90
1, 14867, Note_on_c, 0, 79, 0
1, 14880, Note_on_c, 0, 77, 90
1, 14993, Note_on_c, 0, 77, 0
1, 15000, Note_on_c, 0, 79, 90
1, 15113, Note_on_c, 0, 79, 0
1, 15120, Note_on_c, 0, 74, 90
1, 15347, Note_on_c, 0, 74, 0
1, 15360, Note_on_c, 0, 75, 90
1, 15587, Note_on_c, 0, 75, 0
1, 15600, Note_on_c, 0, 79, 90
1, 15827, Note_on_c, 0, 79, 0
1, 15840, Note_on_c, 0, 77, 90
1, 15953, Note_on_c, 0, 77, 0
1, 15960, Note_on_c, 0, 79, 90
1, 16073, Note_on_c, 0, 79, 0
1, 16080, Note_on_c, 0, 74, 90
1, 16307, Note_on_c, 0, 74, 0
1, 16320, Note_on_c, 0, 75, 90
1, 17231, Note_on_c, 0, 75, 0
1, 17280, Note_on_c, 0, 72, 90
1, 17507, Note_on_c, 0, 72, 0
1, 17520, Note_on_c, 0, 75, 90
1, 17747, Note_on_c, 0, 75, 0
1, 17760, Note_on_c, 0, 74, 90
1, 17873, Note_on_c, 0, 74, 0
1, 17880, Note_on_c, 0, 75, 90
1, 17993, Note_on_c, 0, 75, 0
1, 18000, Note_on_c, 0, 70, 90
1, 18227, Note_on_c, 0, 70, 0
1, 18240, Note_on_c, 0, 72, 90
1, 18467, Note_on_c, 0, 72, 0
1, 18480, Note_on_c, 0, 67, 90
1, 18593, Note_on_c, 0, 67, 0
1, 18600, Note_on_c, 0, 79, 90
1, 18827, Note_on_c, 0, 79, 0
1, 18840, Note_on_c, 0, 67, 90
1, 18953, Note_on_c, 0, 67, 0
1, 18960, Note_on_c, 0, 70, 90
1, 19073, Note_on_c, 0, 70, 0
1, 19080, Note_on_c, 0, 72, 90
1, 19193, Note_on_c, 0, 72, 0
1, 19200, Note_on_c, 0, 72, 90
1, 19427, Note_on_c, 0, 72, 0
1, 19440, Note_on_c, 0, 75, 90
1, 19667, Note_on_c, 0, 75, 0
1, 19680, Note_on_c, 0, 74, 90
1, 19793, Note_on_c, 0, 74, 0
1, 19800, Note_on_c, 0, 72, 90
1, 19913, Note_on_c, 0, 72, 0
1, 19920, Note_on_c, 0, 70, 90
1, 20147, Note_on_c, 0, 70, 0
1, 20160, Note_on_c, 0, 74, 90
1, 20501, Note_on_c, 0, 74, 0
1, 20520, Note_on_c, 0, 75, 90
1, 20633, Note_on_c, 0, 75, 0
1, 20640, Note_on_c, 0, 70, 90
1, 20753, Note_on_c, 0, 70, 0
1, 20760, Note_on_c, 0, 74, 90
1, 20873, Note_on_c, 0, 74, 0
1, 20880, Note_on_c, 0, 79, 90
1, 20993, Note_on_c, 0, 79, 0
1, 21000, Note_on_c, 0, 77, 90
1, 21113, Note_on_c, 0, 77, 0
1, 21120, Note_on_c, 0, 72, 90
1, 21347, Note_on_c, 0, 72, 0
1, 21360, Note_on_c, 0, 75, 90
1, 21587, Note_on_c, 0, 75, 0
1, 21600, Note_on_c, 0, 74, 90
1, 21713, Note_on_c, 0, 74, 0
1, 21720, Note_on_c, 0, 75, 90
1, 21833, Note_on_c, 0, 75, 0
1, 21840, Note_on_c, 0, 70, 90
1, 22067, Note_on_c, 0, 70, 0
1, 22080, Note_on_c, 0, 72, 90
1, 22307, Note_on_c, 0, 72, 0
1, 22320, Note_on_c, 0, 67, 90
1, 22433, Note_on_c, 0, 67, 0
1, 22440, Note_on_c, 0, 79, 90
1, 22667, Note_on_c, 0, 79, 0
1, 22680, Note_on_c, 0, 67, 90
1, 22793, Note_on_c, 0, 67, 0
1, 22800, Note_on_c, 0, 70, 90
1, 22913, Note_on_c, 0, 70, 0
1, 22920, Note_on_c, 0, 72, 90
1, 23033, Note_on_c, 0, 72, 0
1, 23040, Note_on_c, 0, 72, 90
1, 23267, Note_on_c, 0, 72, 0
1, 23280, Note_on_c, 0, 75, 90
1, 23507, Note_on_c, 0, 75, 0
1, 23520, Note_on_c, 0, 74, 90
1, 23633, Note_on_c, 0, 74, 0
1, 23640, Note_on_c, 0, 72, 90
1, 23753, Note_on_c, 0, 72, 0
1, 23760, Note_on_c, 0, 70, 90
1, 23987, Note_on_c, 0, 70, 0
1, 24000, Note_on_c, 0, 72, 90
1, 24911, Note_on_c, 0, 72, 0
1, 24960, Note_on_c, 0, 72, 90
1, 25187, Note_on_c, 0, 72, 0
1, 25200, Note_on_c, 0, 75, 90
1, 25200, Note_on_c, 0, 79, 90
1, 25427, Note_on_c, 0, 75, 0
1, 25427, Note_on_c, 0, 79, 0
1, 25440, Note_on_c, 0, 74, 90
1, 25553, Note_on_c, 0, 74, 0
1, 25560, Note_on_c, 0, 75, 90
1, 25673, Note_on_c, 0, 75, 0
1, 25680, Note_on_c, 0, 70, 90
1, 25680, Note_on_c, 0, 79, 90
1, 25907, Note_on_c, 0, 70, 0
1, 25907, Note_on_c, 0, 79, 0
1, 25920, Note_on_c, 0, 72, 90
1, 26147, Note_on_c, 0, 72, 0
1, 26160, Note_on_c, 0, 67, 90
1, 26273, Note_on_c, 0, 67, 0
1, 26280, Note_on_c, 0, 79, 90
1, 26507, Note_on_c, 0, 79, 0
1, 26520, Note_on_c, 0, 67, 90
1, 26633, Note_on_c, 0, 67, 0
1, 26640, Note_on_c, 0, 70, 90
1, 26753, Note_on_c, 0, 70, 0
1, 26760, Note_on_c, 0, 72, 90
1, 26873, Note_on_c, 0, 72, 0
1, 26880, Note_on_c, 0, 72, 90
1, 27107, Note_on_c, 0, 72, 0
1, 27120, Note_on_c, 0, 70, 90
1, 27120, Note_on_c, 0, 75, 90
1, 27347, Note_on_c, 0, 70, 0
1, 27347, Note_on_c, 0, 75, 0
1, 27360, Note_on_c, 0, 74, 90
1, 27473, Note_on_c, 0, 74, 0
1, 27480, Note_on_c, 0, 72, 90
1, 27593, Note_on_c, 0, 72, 0
1, 27600, Note_on_c, 0, 70, 90
1, 27600, Note_on_c, 0, 74, 90
1, 27827, Note_on_c, 0, 70, 0
1, 27827, Note_on_c, 0, 74, 0
1, 27840, Note_on_c, 0, 74, 90
1, 28181, Note_on_c, 0, 74, 0
1, 28200, Note_on_c, 0, 75, 90
1, 28313, Note_on_c, 0, 75, 0
1, 28320, Note_on_c, 0, 70, 90
1, 28433, Note_on_c, 0, 70, 0
1, 28440, Note_on_c, 0, 74, 90
1, 28553, Note_on_c, 0, 74, 0
1, 28560, Note_on_c, 0, 79, 90
1, 28673, Note_on_c, 0, 79, 0
1, 28680, Note_on_c, 0, 77, 90
1, 28793, Note_on_c, 0, 77, 0
1, 28800, Note_on_c, 0, 72, 90
1, 29027, Note_on_c, 0, 72, 0
1, 29040, Note_on_c, 0, 75, 90
1, 29040, Note_on_c, 0, 79, 90
1, 29267, Note_on_c, 0, 75, 0
1, 29267, Note_on_c, 0, 79, 0
1, 29280, Note_on_c, 0, 74, 90
1, 29393, Note_on_c, 0, 74, 0
1, 29400, Note_on_c, 0, 75, 90
1, 29513, Note_on_c, 0, 75, 0
1, 29520, Note_on_c, 0, 70, 90
1, 29520, Note_on_c, 0, 79, 90
1, 29747, Note_on_c, 0, 70, 0
1, 29747, Note_on_c, 0, 79, 0
1, 29760, Note_on_c, 0, 72, 90
1, 29987, Note_on_c, 0, 72, 0
1, 30000, Note_on_c, 0, 67, 90
1, 30113, Note_on_c, 0, 67, 0
1, 30120, Note_on_c, 0, 79, 90
1, 30347, Note_on_c, 0, 79, 0
1, 30360, Note_on_c, 0, 67, 90
1, 30473, Note_on_c, 0, 67, 0
1, 30480, Note_on_c, 0, 70, 90
1, 30593, Note_on_c, 0, 70, 0
1, 30600, Note_on_c, 0, 72, 90
1, 30713, Note_on_c, 0, 72, 0
1, 30720, Note_on_c, 0, 72, 90
1, 30947, Note_on_c, 0, 72, 0
1, 30960, Note_on_c, 0, 70, 90
1, 30960, Note_on_c, 0, 75, 90
1, 31187, Note_on_c, 0, 70, 0
1, 31187, Note_on_c, 0, 75, 0
1, 31200, Note_on_c, 0, 74, 90
1, 31313, Note_on_c, 0, 74, 0
1, 31320, Note_on_c, 0, 72, 90
1, 31433, Note_on_c, 0, 72, 0
1, 31440, Note_on_c, 0, 70, 90
1, 31440, Note_on_c, 0, 74, 90
1, 31667, Note_on_c, 0, 70, 0
1, 31667, Note_on_c, 0, 74, 0
1, 31680, Note_on_c, 0, 72, 90
1, 31793, Note_on_c, 0, 72, 0
1, 31800, Note_on_c, 0, 70, 90
1, 31913, Note_on_c, 0, 70, 0
1, 31920, Note_on_c, 0, 67, 90
1, 32033, Note_on_c, 0, 67, 0
1, 32040, Note_on_c, 0, 72, 90
1, 32153, Note_on_c, 0, 72, 0
1, 32160, Note_on_c, 0, 72, 90
1, 32387, Note_on_c, 0, 72, 0
1, 32400, Note_on_c, 0, 70, 90
1, 32627, Note_on_c, 0, 70, 0
1, 32640, Note_on_c, 0, 80, 90
1, 32759, Note_on_c, 0, 80, 0
1, 32880, Note_on_c, 0, 82, 90
1, 32999, Note_on_c, 0, 82, 0
1, 33120, Note_on_c, 0, 84, 90
1, 33299, Note_on_c, 0, 84, 0
1, 33480, Note_on_c, 0, 79, 90
1, 33707, Note_on_c, 0, 79, 0
1, 33720, Note_on_c, 0, 79, 90
1, 33833, Note_on_c, 0, 79, 0
1, 33840, Note_on_c, 0, 82, 90
1, 33953, Note_on_c, 0, 82, 0
1, 33960, Note_on_c, 0, 84, 90
1, 34529, Note_on_c, 0, 84, 0
1, 34560, Note_on_c, 0, 80, 90
1, 34679, Note_on_c, 0, 80, 0
1, 34800, Note_on_c, 0, 82, 90
1, 34919, Note_on_c, 0, 82, 0
1, 35040, Note_on_c, 0, 84, 90
1, 35153, Note_on_c, 0, 84, 0
1, 35160, Note_on_c, 0, 86, 90
1, 35279, Note_on_c, 0, 86, 0
1, 35400, Note_on_c, 0, 87, 90
1, 35627, Note_on_c, 0, 87, 0
1, 35640, Note_on_c, 0, 87, 90
1, 35753, Note_on_c, 0, 87, 0
1, 35760, Note_on_c, 0, 86, 90
1, 35873, Note_on_c, 0, 86, 0
1, 35880, Note_on_c, 0, 84, 90
1, 36449, Note_on_c, 0, 84, 0
1, 36480, Note_on_c, 0, 80, 90
1, 36593, Note_on_c, 0, 80, 0
1, 36600, Note_on_c, 0, 72, 90
1, 36713, Note_on_c, 0, 72, 0
1, 36720, Note_on_c, 0, 82, 90
1, 36833, Note_on_c, 0, 82, 0
1, 36840, Note_on_c, 0, 72, 90
1, 36953, Note_on_c, 0, 72, 0
1, 36960, Note_on_c, 0, 84, 90
1, 37073, Note_on_c, 0, 84, 0
1, 37080, Note_on_c, 0, 72, 90
1, 37259, Note_on_c, 0, 72, 0
1, 37320, Note_on_c, 0, 79, 90
1, 37440, Note_on_c, 0, 72, 90
1, 37547, Note_on_c, 0, 79, 0
1, 37553, Note_on_c, 0, 72, 0
1, 37560, Note_on_c, 0, 79, 90
1, 37673, Note_on_c, 0, 79, 0
1, 37680, Note_on_c, 0, 82, 90
1, 37793, Note_on_c, 0, 82, 0
1, 37800, Note_on_c, 0, 84, 90
1, 38369, Note_on_c, 0, 84, 0
1, 38400, Note_on_c, 0, 80, 90
1, 38513, Note_on_c, 0, 80, 0
1, 38520, Note_on_c, 0, 72, 90
1, 38633, Note_on_c, 0, 72, 0
1, 38640, Note_on_c, 0, 82, 90
1, 38753, Note_on_c, 0, 82, 0
1, 38760, Note_on_c, 0, 72, 90
1, 38873, Note_on_c, 0, 72, 0
1, 38880, Note_on_c, 0, 84, 90
1, 38993, Note_on_c, 0, 84, 0
1, 39000, Note_on_c, 0, 86, 90
1, 39119, Note_on_c, 0, 86, 0
1, 39240, Note_on_c, 0, 87, 90
1, 39467, Note_on_c, 0, 87, 0
1, 39480, Note_on_c, 0, 87, 90
1, 39593, Note_on_c, 0, 87, 0
1, 39600, Note_on_c, 0, 86, 90
1, 39713, Note_on_c, 0, 86, 0
1, 39720, Note_on_c, 0, 89, 90
1, 39947, Note_on_c, 0, 89, 0
1, 39960, Note_on_c, 0, 87, 90
1, 40073, Note_on_c, 0, 87, 0
1, 40080, Note_on_c, 0, 86, 90
1, 40193, Note_on_c, 0, 86, 0
1, 40200, Note_on_c, 0, 82, 90
1, 40313, Note_on_c, 0, 82, 0
1, 40320, Note_on_c, 0, 72, 90
1, 40433, Note_on_c, 0, 72, 0
1, 40440, Note_on_c, 0, 72, 90
1, 40553, Note_on_c, 0, 72, 0
1, 40560, Note_on_c, 0, 75, 90
1, 40679, Note_on_c, 0, 75, 0
1, 40800, Note_on_c, 0, 77, 90
1, 40913, Note_on_c, 0, 77, 0
1, 40920, Note_on_c, 0, 79, 90
1, 41039, Note_on_c, 0, 79, 0
1, 41160, Note_on_c, 0, 74, 90
1, 41387, Note_on_c, 0, 74, 0
1, 41400, Note_on_c, 0, 74, 90
1, 41513, Note_on_c, 0, 74, 0
1, 41520, Note_on_c, 0, 75, 90
1, 41633, Note_on_c, 0, 75, 0
1, 41640, Note_on_c, 0, 74, 90
1, 41867, Note_on_c, 0, 74, 0
1, 41880, Note_on_c, 0, 72, 90
1, 41993, Note_on_c, 0, 72, 0
1, 42000, Note_on_c, 0, 70, 90
1, 42113, Note_on_c, 0, 70, 0
1, 42120, Note_on_c, 0, 67, 90
1, 42233, Note_on_c, 0, 67, 0
1, 42240, Note_on_c, 0, 72, 90
1, 42353, Note_on_c, 0, 72, 0
1, 42360, Note_on_c, 0, 72, 90
1, 42473, Note_on_c, 0, 72, 0
1, 42480, Note_on_c, 0, 75, 90
1, 42599, Note_on_c, 0, 75, 0
1, 42720, Note_on_c, 0, 77, 90
1, 42833, Note_on_c, 0, 77, 0
1, 42840, Note_on_c, 0, 79, 90
1, 42959, Note_on_c, 0, 79, 0
1, 43080, Note_on_c, 0, 74, 90
1, 43307, Note_on_c, 0, 74, 0
1, 43320, Note_on_c, 0, 74, 90
1, 43433, Note_on_c, 0, 74, 0
1, 43440, Note_on_c, 0, 75, 90
1, 43553, Note_on_c, 0, 75, 0
1, 43560, Note_on_c, 0, 74, 90
1, 44129, Note_on_c, 0, 74, 0
1, 44160, Note_on_c, 0, 72, 90
1, 44273, Note_on_c, 0, 72, 0
1, 44280, Note_on_c, 0, 72, 90
1, 44393, Note_on_c, 0, 72, 0
1, 44400, Note_on_c, 0, 75, 90
1, 44513, Note_on_c, 0, 75, 0
1, 44520, Note_on_c, 0, 72, 90
1, 44633, Note_on_c, 0, 72, 0
1, 44640, Note_on_c, 0, 77, 90
1, 44753, Note_on_c, 0, 77, 0
1, 44760, Note_on_c, 0, 79, 90
1, 44879, Note_on_c, 0, 79, 0
1, 45000, Note_on_c, 0, 74, 90
1, 45227, Note_on_c, 0, 74, 0
1, 45240, Note_on_c, 0, 74, 90
1, 45353, Note_on_c, 0, 74, 0
1, 45360, Note_on_c, 0, 75, 90
1, 45473, Note_on_c, 0, 75, 0
1, 45480, Note_on_c, 0, 74, 90
1, 45593, Note_on_c, 0, 74, 0
1, 45600, Note_on_c, 0, 74, 90
1, 45713, Note_on_c, 0, 74, 0
1, 45720, Note_on_c, 0, 72, 90
1, 45833, Note_on_c, 0, 72, 0
1, 45840, Note_on_c, 0, 70, 90
1, 45953, Note_on_c, 0, 70, 0
1, 45960, Note_on_c, 0, 67, 90
1, 46073, Note_on_c, 0, 67, 0
1, 46080, Note_on_c, 0, 72, 90
1, 46193, Note_on_c, 0, 72, 0
1, 46200, Note_on_c, 0, 72, 90
1, 46313, Note_on_c, 0, 72, 0
1, 46320, Note_on_c, 0, 75, 90
1, 46433, Note_on_c, 0, 75, 0
1, 46440, Note_on_c, 0, 72, 90
1, 46553, Note_on_c, 0, 72, 0
1, 46560, Note_on_c, 0, 77, 90
1, 46673, Note_on_c, 0, 77, 0
1, 46680, Note_on_c, 0, 79, 90
1, 46799, Note_on_c, 0, 79, 0
1, 46920, Note_on_c, 0, 75, 90
1, 47147, Note_on_c, 0, 75, 0
1, 47160, Note_on_c, 0, 75, 90
1, 47273, Note_on_c, 0, 75, 0
1, 47280, Note_on_c, 0, 79, 90
1, 47393, Note_on_c, 0, 79, 0
1, 47400, Note_on_c, 0, 84, 90
1, 47627, Note_on_c, 0, 84, 0
1, 47640, Note_on_c, 0, 84, 90
1, 47753, Note_on_c, 0, 84, 0
1, 47760, Note_on_c, 0, 84, 90
1, 47873, Note_on_c, 0, 84, 0
1, 47880, Note_on_c, 0, 84, 90
1, 47993, Note_on_c, 0, 84, 0
1, 48000, Tempo, 500000
1, 48000, Note_on_c, 0, 67, 90
1, 48000, Note_on_c, 0, 72, 90
1, 49139, Note_on_c, 0, 67, 0
1, 49139, Note_on_c, 0, 72, 0
1, 49200, Note_on_c, 0, 63, 90
1, 49427, Note_on_c, 0, 63, 0
1, 49440, Note_on_c, 0, 67, 90
1, 49667, Note_on_c, 0, 67, 0
1, 49680, Note_on_c, 0, 72, 90
1, 49907, Note_on_c, 0, 72, 0
1, 49920, Note_on_c, 0, 65, 90
1, 49920, Note_on_c, 0, 72, 90
1, 50603, Note_on_c, 0, 65, 0
1, 50603, Note_on_c, 0, 72, 0
1, 50640, Note_on_c, 0, 74, 90
1, 51323, Note_on_c, 0, 74, 0
1, 51360, Note_on_c, 0, 75, 90
1, 51815, Note_on_c, 0, 75, 0
1, 51840, Note_on_c, 0, 75, 90
1, 51840, Note_on_c, 0, 84, 90
1, 52979, Note_on_c, 0, 75, 0
1, 52979, Note_on_c, 0, 84, 0
1, 53040, Note_on_c, 0, 75, 90
1, 53267, Note_on_c, 0, 75, 0
1, 53280, Note_on_c, 0, 79, 90
1, 53507, Note_on_c, 0, 79, 0
1, 53520, Note_on_c, 0, 84, 90
1, 53747, Note_on_c, 0, 84, 0
1, 53760, Note_on_c, 0, 84, 90
1, 54443, Note_on_c, 0, 84, 0
1, 54480, Note_on_c, 0, 86, 90
1, 54935, Note_on_c, 0, 86, 0
1, 54960, Note_on_c, 0, 63, 90
1, 55187, Note_on_c, 0, 63, 0
1, 55200, Note_on_c, 0, 67, 90
1, 55427, Note_on_c, 0, 67, 0
1, 55440, Note_on_c, 0, 72, 90
1, 55667, Note_on_c, 0, 72, 0
1, 55680, Note_on_c, 0, 67, 90
1, 55680, Note_on_c, 0, 72, 90
1, 56819, Note_on_c, 0, 67, 0
1, 56819, Note_on_c, 0, 72, 0
1, 56880, Note_on_c, 0, 63, 90
1, 57107, Note_on_c, 0, 63, 0
1, 57120, Note_on_c, 0, 67, 90
1, 57347, Note_on_c, 0, 67, 0
1, 57360, Note_on_c, 0, 72, 90
1, 57587, Note_on_c, 0, 72, 0
1, 57600, Note_on_c, 0, 65, 90
1, 57600, Note_on_c, 0, 72, 90
1, 58283, Note_on_c, 0, 65, 0
1, 58283, Note_on_c, 0, 72, 0
1, 58320, Note_on_c, 0, 74, 90
1, 58775, Note_on_c, 0, 74, 0
1, 58800, Note_on_c, 0, 75, 90
1, 59027, Note_on_c, 0, 75, 0
1, 59040, Note_on_c, 0, 79, 90
1, 59267, Note_on_c, 0, 79, 0
1, 59280, Note_on_c, 0, 84, 90
1, 59507, Note_on_c, 0, 84, 0
1, 59520, Note_on_c, 0, 75, 90
1, 59520, Note_on_c, 0, 84, 90
1, 60203, Note_on_c, 0, 75, 0
1, 60203, Note_on_c, 0, 84, 0
1, 60240, Note_on_c, 0, 77, 90
1, 60240, Note_on_c, 0, 86, 90
1, 60695, Note_on_c, 0, 77, 0
1, 60695, Note_on_c, 0, 86, 0
1, 60720, Note_on_c, 0, 75, 90
1, 60947, Note_on_c, 0, 75, 0
1, 60960, Note_on_c, 0, 79, 90
1, 61187, Note_on_c, 0, 79, 0
1, 61200, Note_on_c, 0, 84, 90
1, 61427, Note_on_c, 0, 84, 0
1, 61440, Note_on_c, 0, 75, 90
1, 61440, Note_on_c, 0, 84, 90
1, 62123, Note_on_c, 0, 75, 0
1, 62123, Note_on_c, 0, 84, 0
1, 62160, Note_on_c, 0, 74, 90
1, 62843, Note_on_c, 0, 74, 0
1, 62880, Note_on_c, 0, 70, 90
1, 63335, Note_on_c, 0, 70, 0
1, 63360, Note_on_c, 0, 80, 90
1, 64499, Note_on_c, 0, 80, 0
1, 64560, Note_on_c, 0, 80, 90
1, 64787, Note_on_c, 0, 80, 0
1, 64800, Note_on_c, 0, 79, 90
1, 65027, Note_on_c, 0, 79, 0
1, 65040, Note_on_c, 0, 77, 90
1, 65267, Note_on_c, 0, 77, 0
1, 65280, Note_on_c, 0, 77, 90
1, 65963, Note_on_c, 0, 77, 0
1, 66000, Note_on_c, 0, 74, 90
1, 66683, Note_on_c, 0, 74, 0
1, 66720, Note_on_c, 0, 77, 90
1, 67175, Note_on_c, 0, 77, 0
1, 67200, Note_on_c, 0, 75, 90
1, 67200, Note_on_c, 0, 79, 90
1, 67883, Note_on_c, 0, 75, 0
1, 67883, Note_on_c, 0, 79, 0
1, 67920, Note_on_c, 0, 74, 90
1, 67920, Note_on_c, 0, 77, 90
1, 68603, Note_on_c, 0, 74, 0
1, 68603, Note_on_c, 0, 77, 0
1, 68640, Note_on_c, 0, 72, 90
1, 68640, Note_on_c, 0, 75, 90
1, 70919, Note_on_c, 0, 72, 0
1, 70919, Note_on_c, 0, 75, 0
1, 71040, Note_on_c, 0, 72, 90
1, 72179, Note_on_c, 0, 72, 0
1, 72240, Note_on_c, 0, 72, 90
1, 72467, Note_on_c, 0, 72, 0
1, 72480, Note_on_c, 0, 74, 90
1, 72707, Note_on_c, 0, 74, 0
1, 72720, Note_on_c, 0, 75, 90
1, 72947, Note_on_c, 0, 75, 0
1, 72960, Note_on_c, 0, 74, 90
1, 73643, Note_on_c, 0, 74, 0
1, 73680, Note_on_c, 0, 70, 90
1, 74363, Note_on_c, 0, 70, 0
1, 74400, Note_on_c, 0, 67, 90
1, 74855, Note_on_c, 0, 67, 0
1, 74880, Note_on_c, 0, 72, 90
1, 76019, Note_on_c, 0, 72, 0
1, 76080, Note_on_c, 0, 72, 90
1, 76307, Note_on_c, 0, 72, 0
1, 76320, Note_on_c, 0, 74, 90
1, 76547, Note_on_c, 0, 74, 0
1, 76560, Note_on_c, 0, 75, 90
1, 76787, Note_on_c, 0, 75, 0
1, 76800, Note_on_c, 0, 74, 90
1, 77483, Note_on_c, 0, 74, 0
1, 77520, Note_on_c, 0, 79, 90
1, 78203, Note_on_c, 0, 79, 0
1, 78240, Note_on_c, 0, 77, 90
1, 78695, Note_on_c, 0, 77, 0
1, 78720, Note_on_c, 0, 75, 90
1, 79859, Note_on_c, 0, 75, 0
1, 79920, Note_on_c, 0, 75, 90
1, 80147, Note_on_c, 0, 75, 0
1, 80160, Note_on_c, 0, 77, 90
1, 80387, Note_on_c, 0, 77, 0
1, 80400, Note_on_c, 0, 79, 90
1, 80627, Note_on_c, 0, 79, 0
1, 80640, Note_on_c, 0, 82, 90
1, 81323, Note_on_c, 0, 82, 0
1, 81360, Note_on_c, 0, 77, 90
1, 82043, Note_on_c, 0, 77, 0
1, 82080, Note_on_c, 0, 74, 90
1, 82535, Note_on_c, 0, 74, 0
1, 82560, Note_on_c, 0, 75, 90
1, 83699, Note_on_c, 0, 75, 0
1, 83760, Note_on_c, 0, 75, 90
1, 83987, Note_on_c, 0, 75, 0
1, 84000, Note_on_c, 0, 77, 90
1, 84227, Note_on_c, 0, 77, 0
1, 84240, Note_on_c, 0, 79, 90
1, 84467, Note_on_c, 0, 79, 0
1, 84480, Note_on_c, 0, 77, 90
1, 85163, Note_on_c, 0, 77, 0
1, 85200, Note_on_c, 0, 77, 90
1, 85200, Note_on_c, 0, 80, 90
1, 85883, Note_on_c, 0, 77, 0
1, 85883, Note_on_c, 0, 80, 0
1, 85920, Note_on_c, 0, 77, 90
1, 85920, Note_on_c, 0, 82, 90
1, 86375, Note_on_c, 0, 77, 0
1, 86375, Note_on_c, 0, 82, 0
1, 86400, Note_on_c, 0, 77, 90
1, 86400, Note_on_c, 0, 79, 90
1, 88223, Note_on_c, 0, 77, 0
1, 88223, Note_on_c, 0, 79, 0
1, 88320, Note_on_c, 0, 75, 90
1, 88320, Note_on_c, 0, 79, 90
1, 89231, Note_on_c, 0, 75, 0
1, 89231, Note_on_c, 0, 79, 0
1, 89520, Note_on_c, 0, 74, 90
1, 89747, Note_on_c, 0, 74, 0
1, 89760, Note_on_c, 0, 84, 90
1, 89987, Note_on_c, 0, 84, 0
1, 90000, Note_on_c, 0, 74, 90
1, 90227, Note_on_c, 0, 74, 0
1, 90240, Note_on_c, 0, 79, 90
1, 90240, Note_on_c, 0, 82, 90
1, 90467, Note_on_c, 0, 79, 0
1, 90467, Note_on_c, 0, 82, 0
1, 90480, Note_on_c, 0, 79, 90
1, 90480, Note_on_c, 0, 84, 90
1, 90707, Note_on_c, 0, 79, 0
1, 90707, Note_on_c, 0, 84, 0
1, 90720, Note_on_c, 0, 79, 90
1, 90720, Note_on_c, 0, 84, 90
1, 90959, Note_on_c, 0, 79, 0
1, 90959, Note_on_c, 0, 84, 0
1, 91200, Note_on_c, 0, 82, 90
1, 91200, Note_on_c, 0, 86, 90
1, 91427, Note_on_c, 0, 82, 0
1, 91427, Note_on_c, 0, 86, 0
1, 91440, Note_on_c, 0, 84, 90
1, 91440, Note_on_c, 0, 87, 90
1, 91667, Note_on_c, 0, 84, 0
1, 91667, Note_on_c, 0, 87, 0
1, 91680, Note_on_c, 0, 84, 90
1, 91680, Note_on_c, 0, 87, 90
1, 91919, Note_on_c, 0, 84, 0
1, 91919, Note_on_c, 0, 87, 0
1, 92160, Note_on_c, 0, 82, 90
1, 92160, Note_on_c, 0, 86, 90
1, 92387, Note_on_c, 0, 82, 0
1, 92387, Note_on_c, 0, 86, 0
1, 92400, Note_on_c, 0, 79, 90
1, 92400, Note_on_c, 0, 82, 90
1, 92627, Note_on_c, 0, 79, 0
1, 92627, Note_on_c, 0, 82, 0
1, 92640, Note_on_c, 0, 79, 90
1, 92867, Note_on_c, 0, 79, 0
1, 92880, Note_on_c, 0, 79, 90
1, 92880, Note_on_c, 0, 84, 90
1, 94019, Note_on_c, 0, 79, 0
1, 94019, Note_on_c, 0, 84, 0
1, 94080, Note_on_c, 0, 79, 90
1, 94080, Note_on_c, 0, 82, 90
1, 94307, Note_on_c, 0, 79, 0
1, 94307, Note_on_c, 0, 82, 0
1, 94320, Note_on_c, 0, 80, 90
1, 94320, Note_on_c, 0, 84, 90
1, 94547, Note_on_c, 0, 80, 0
1, 94547, Note_on_c, 0, 84, 0
1, 94560, Note_on_c, 0, 80, 90
1, 94560, Note_on_c, 0, 84, 90
1, 94799, Note_on_c, 0, 80, 0
1, 94799, Note_on_c, 0, 84, 0
1, 95040, Note_on_c, 0, 82, 90
1, 95040, Note_on_c, 0, 86, 90
1, 95267, Note_on_c, 0, 82, 0
1, 95267, Note_on_c, 0, 86, 0
1, 95280, Note_on_c, 0, 84, 90
1, 95280, Note_on_c, 0, 87, 90
1, 95507, Note_on_c, 0, 84, 0
1, 95507, Note_on_c, 0, 87, 0
1, 95520, Note_on_c, 0, 84, 90
1, 95520, Note_on_c, 0, 87, 90
1, 95759, Note_on_c, 0, 84, 0
1, 95759, Note_on_c, 0, 87, 0
1, 96000, Note_on_c, 0, 82, 90
1, 96000, Note_on_c, 0, 86, 90
1, 96227, Note_on_c, 0, 82, 0
1, 96227, Note_on_c, 0, 86, 0
1, 96240, Note_on_c, 0, 84, 90
1, 96240, Note_on_c, 0, 87, 90
1, 96467, Note_on_c, 0, 84, 0
1, 96467, Note_on_c, 0, 87, 0
1, 96480, Note_on_c, 0, 86, 90
1, 96480, Note_on_c, 0, 89, 90
1, 96719, Note_on_c, 0, 86, 0
1, 96719, Note_on_c, 0, 89, 0
1, 96720, Note_on_c, 0, 86, 90
1, 96960, Note_on_c, 0, 91, 90
1, 97187, Note_on_c, 0, 91, 0
1, 97200, Note_on_c, 0, 91, 90
1, 97403, Note_on_c, 0, 86, 0
1, 97427, Note_on_c, 0, 91, 0
1, 97440, Note_on_c, 0, 82, 90
1, 97667, Note_on_c, 0, 82, 0
1, 97680, Note_on_c, 0, 82, 90
1, 97907, Note_on_c, 0, 82, 0
1, 97920, Note_on_c, 0, 79, 90
1, 97920, Note_on_c, 0, 82, 90
1, 98147, Note_on_c, 0, 79, 0
1, 98147, Note_on_c, 0, 82, 0
1, 98160, Note_on_c, 0, 79, 90
1, 98160, Note_on_c, 0, 84, 90
1, 98387, Note_on_c, 0, 79, 0
1, 98387, Note_on_c, 0, 84, 0
1, 98400, Note_on_c, 0, 79, 90
1, 98400, Note_on_c, 0, 84, 90
1, 98639, Note_on_c, 0, 79, 0
1, 98639, Note_on_c, 0, 84, 0
1, 98880, Note_on_c, 0, 82, 90
1, 98880, Note_on_c, 0, 86, 90
1, 99107, Note_on_c, 0, 82, 0
1, 99107, Note_on_c, 0, 86, 0
1, 99120, Note_on_c, 0, 84, 90
1, 99120, Note_on_c, 0, 87, 90
1, 99347, Note_on_c, 0, 84, 0
1, 99347, Note_on_c, 0, 87, 0
1, 99360, Note_on_c, 0, 84, 90
1, 99360, Note_on_c, 0, 87, 90
1, 99599, Note_on_c, 0, 84, 0
1, 99599, Note_on_c, 0, 87, 0
1, 99840, Note_on_c, 0, 82, 90
1, 99840, Note_on_c, 0, 86, 90
1, 100067, Note_on_c, 0, 82, 0
1, 100067, Note_on_c, 0, 86, 0
1, 100080, Note_on_c, 0, 79, 90
1, 100080, Note_on_c, 0, 82, 90
1, 100307, Note_on_c, 0, 79, 0
1, 100307, Note_on_c, 0, 82, 0
1, 100320, Note_on_c, 0, 79, 90
1, 100547, Note_on_c, 0, 79, 0
1, 100560, Note_on_c, 0, 79, 90
1, 100560, Note_on_c, 0, 84, 90
1, 103523, Note_on_c, 0, 79, 0
1, 103523, Note_on_c, 0, 84, 0
1, 103680, Tempo, 750000
1, 103680, Note_on_c, 0, 72, 90
1, 103907, Note_on_c, 0, 72, 0
1, 103920, Note_on_c, 0, 75, 90
1, 104147, Note_on_c, 0, 75, 0
1, 104160, Note_on_c, 0, 74, 90
1, 104273, Note_on_c, 0, 74, 0
1, 104280, Note_on_c, 0, 75, 90
1, 104393, Note_on_c, 0, 75, 0
1, 104400, Note_on_c, 0, 70, 90
1, 104627, Note_on_c, 0, 70, 0
1, 104640, Note_on_c, 0, 72, 90
1, 104867, Note_on_c, 0, 72, 0
1, 104880, Note_on_c, 0, 75, 90
1, 105107, Note_on_c, 0, 75, 0
1, 105120, Note_on_c, 0, 74, 90
1, 105233, Note_on_c, 0, 74, 0
1, 105240, Note_on_c, 0, 75, 90
1, 105353, Note_on_c, 0, 75, 0
1, 105360, Note_on_c, 0, 70, 90
1, 105587, Note_on_c, 0, 70, 0
1, 105600, Note_on_c, 0, 72, 90
1, 105827, Note_on_c, 0, 72, 0
1, 105840, Note_on_c, 0, 75, 90
1, 106067, Note_on_c, 0, 75, 0
1, 106080, Note_on_c, 0, 74, 90
1, 106193, Note_on_c, 0, 74, 0
1, 106200, Note_on_c, 0, 75, 90
1, 106313, Note_on_c, 0, 75, 0
1, 106320, Note_on_c, 0, 70, 90
1, 106547, Note_on_c, 0, 70, 0
1, 106560, Note_on_c, 0, 72, 90
1, 107129, Note_on_c, 0, 72, 0
1, 107160, Note_on_c, 0, 72, 90
1, 107273, Note_on_c, 0, 72, 0
1, 107280, Note_on_c, 0, 74, 90
1, 107393, Note_on_c, 0, 74, 0
1, 107400, Note_on_c, 0, 75, 90
1, 107513, Note_on_c, 0, 75, 0
1, 107520, Note_on_c, 0, 74, 90
1, 107747, Note_on_c, 0, 74, 0
1, 107760, Note_on_c, 0, 79, 90
1, 107987, Note_on_c, 0, 79, 0
1, 108000, Note_on_c, 0, 77, 90
1, 108113, Note_on_c, 0, 77, 0
1, 108120, Note_on_c, 0, 79, 90
1, 108233, Note_on_c, 0, 79, 0
1, 108240, Note_on_c, 0, 74, 90
1, 108467, Note_on_c, 0, 74, 0
1, 108480, Note_on_c, 0, 74, 90
1, 108707, Note_on_c, 0, 74, 0
1, 108720, Note_on_c, 0, 79, 90
1, 108947, Note_on_c, 0, 79, 0
1, 108960, Note_on_c, 0, 77, 90
1, 109073, Note_on_c, 0, 77, 0
1, 109080, Note_on_c, 0, 79, 90
1, 109193, Note_on_c, 0, 79, 0
1, 109200, Note_on_c, 0, 74, 90
1, 109427, Note_on_c, 0, 74, 0
1, 109440, Note_on_c, 0, 75, 90
1, 109667, Note_on_c, 0, 75, 0
1, 109680, Note_on_c, 0, 79, 90
1, 109907, Note_on_c, 0, 79, 0
1, 109920, Note_on_c, 0, 77, 90
1, 110033, Note_on_c, 0, 77, 0
1, 110040, Note_on_c, 0, 79, 90
1, 110153, Note_on_c, 0, 79, 0
1, 110160, Note_on_c, 0, 74, 90
1, 110387, Note_on_c, 0, 74, 0
1, 110400, Note_on_c, 0, 75, 90
1, 111311, Note_on_c, 0, 75, 0
1, 111360, Note_on_c, 0, 72, 90
1, 111587, Note_on_c, 0, 72, 0
1, 111600, Note_on_c, 0, 75, 90
1, 111827, Note_on_c, 0, 75, 0
1, 111840, Note_on_c, 0, 74, 90
1, 111953, Note_on_c, 0, 74, 0
1, 111960, Note_on_c, 0, 75, 90
1, 112073, Note_on_c, 0, 75, 0
1, 112080, Note_on_c, 0, 70, 90
1, 112307, Note_on_c, 0, 70, 0
1, 112320, Note_on_c, 0, 72, 90
1, 112547, Note_on_c, 0, 72, 0
1, 112560, Note_on_c, 0, 75, 90
1, 112787, Note_on_c, 0, 75, 0
1, 112800, Note_on_c, 0, 74, 90
1, 112913, Note_on_c, 0, 74, 0
1, 112920, Note_on_c, 0, 75, 90
1, 113033, Note_on_c, 0, 75, 0
1, 113040, Note_on_c, 0, 70, 90
1, 113267, Note_on_c, 0, 70, 0
1, 113280, Note_on_c, 0, 72, 90
1, 113507, Note_on_c, 0, 72, 0
1, 113520, Note_on_c, 0, 75, 90
1, 113747, Note_on_c, 0, 75, 0
1, 113760, Note_on_c, 0, 74, 90
1, 113873, Note_on_c, 0, 74, 0
1, 113880, Note_on_c, 0, 75, 90
1, 113993, Note_on_c, 0, 75, 0
1, 114000, Note_on_c, 0, 70, 90
1, 114227, Note_on_c, 0, 70, 0
1, 114240, Note_on_c, 0, 72, 90
1, 114809, Note_on_c, 0, 72, 0
1, 114840, Note_on_c, 0, 72, 90
1, 114953, Note_on_c, 0, 72, 0
1, 114960, Note_on_c, 0, 74, 90
1, 115073, Note_on_c, 0, 74, 0
1, 115080, Note_on_c, 0, 75, 90
1, 115193, Note_on_c, 0, 75, 0
1, 115200, Note_on_c, 0, 74, 90
1, 115427, Note_on_c, 0, 74, 0
1, 115440, Note_on_c, 0, 79, 90
1, 115667, Note_on_c, 0, 79, 0
1, 115680, Note_on_c, 0, 77, 90
1, 115793, Note_on_c, 0, 77, 0
1, 115800, Note_on_c, 0, 79, 90
1, 115913, Note_on_c, 0, 79, 0
1, 115920, Note_on_c, 0, 74, 90
1, 116147, Note_on_c, 0, 74, 0
1, 116160, Note_on_c, 0, 74, 90
1, 116387, Note_on_c, 0, 74, 0
1, 116400, Note_on_c, 0, 79, 90
1, 116627, Note_on_c, 0, 79, 0
1, 116640, Note_on_c, 0, 77, 90
1, 116753, Note_on_c, 0, 77, 0
1, 116760, Note_on_c, 0, 79, 90
1, 116873, Note_on_c, 0, 79, 0
1, 116880, Note_on_c, 0, 74, 90
1, 117107, Note_on_c, 0, 74, 0
1, 117120, Note_on_c, 0, 75, 90
1, 117347, Note_on_c, 0, 75, 0
1, 117360, Note_on_c, 0, 79, 90
1, 117587, Note_on_c, 0, 79, 0
1, 117600, Note_on_c, 0, 77, 90
1, 117713, Note_on_c, 0, 77, 0
1, 117720, Note_on_c, 0, 79, 90
1, 117833, Note_on_c, 0, 79, 0
1, 117840, Note_on_c, 0, 74, 90
1, 118067, Note_on_c, 0, 74, 0
1, 118080, Note_on_c, 0, 72, 90
1, 124463, Note_on_c, 0, 72, 0
1, 124464, End_track
0, 0, End_of_file
